# xmcd
#
# Track frame offsets:
#	150
#	18057
#	32107
#	51175
#	77360
#	96087
#	114595
#	131455
#	146362
#	155345
#	173960
#	186557
#	200425
#	221205
#	233087
#	256315
#
# Disc length: 3608 seconds
#
# Revision: 1
# Processed by: cddbd v1.5.1PL0 Copyright (c) Steve Scherf et al.
# Submitted via: CDex 1.50Beta5
#
DISCID=d60e1610
DTITLE=篠崎史子 - 胎教の音楽 Disc 1
DYEAR=2000
DGENRE=
TTITLE0=篠崎史子/歌の翼に
TTITLE1=東京レディス・オーケストラ/「カヴァレリア・ルスティカーナ」間奏曲
TTITLE2=東京レディス・オーケストラ/メヌエット〜「アルルの女」より
TTITLE3=東京レディス・オーケストラ/グノーのアヴェ・マリア
TTITLE4=田中希代子/月の光
TTITLE5=ムード・ポップス・オーケストラ/G線上のアリア
TTITLE6=ジュリアン・オレフスキー/愛の喜び
TTITLE7=東京レディス・オーケストラ/シューベルトの子守歌
TTITLE8=ウィルフレッド・レーマン/ゴセックのガヴォット
TTITLE9=ヤン・ホラーク/わかれの曲
TTITLE10=向山佳絵子/白鳥〜「動物の謝肉祭」より
TTITLE11=柴野さつき/ジムノペディ第1番
TTITLE12=東京レディス・オーケストラ/愛の夢第3番
TTITLE13=東京レディス・オーケストラ/天使のセレナード
TTITLE14=東京レディス・オーケストラ/ラルゴ(オンブラ・マイ・フ)
TTITLE15=東京レディス・オーケストラ/愛のあいさつ
EXTD=
EXTT0=
EXTT1=
EXTT2=
EXTT3=
EXTT4=
EXTT5=
EXTT6=
EXTT7=
EXTT8=
EXTT9=
EXTT10=
EXTT11=
EXTT12=
EXTT13=
EXTT14=
EXTT15=
PLAYORDER=
